<?xml version="1.0" standalone="no"?>
<!DOCTYPE svg PUBLIC "-//W3C//DTD SVG 20010904//EN"
 "http://www.w3.org/TR/2001/REC-SVG-20010904/DTD/svg10.dtd">
<svg version="1.0" xmlns="http://www.w3.org/2000/svg"
 width="626.000000pt" height="626.000000pt" viewBox="0 0 626.000000 626.000000"
 preserveAspectRatio="xMidYMid meet">

<g transform="translate(0.000000,626.000000) scale(0.100000,-0.100000)"
fill="#000000" stroke="none">
<path d="M1885 4292 c-39 -9 -75 -20 -81 -24 -7 -4 -48 -27 -93 -51 -171 -90
-272 -210 -411 -487 -76 -152 -117 -246 -161 -370 -10 -30 -23 -64 -28 -75
-21 -44 -75 -248 -113 -423 -6 -29 -12 -142 -12 -250 -1 -191 0 -199 28 -280
62 -182 189 -315 361 -376 75 -27 250 -33 317 -11 123 40 189 106 364 365 103
153 226 321 249 340 10 8 26 4 67 -19 68 -38 115 -46 178 -31 70 17 143 83
165 150 l17 50 407 0 c457 0 422 6 456 -75 50 -123 190 -167 315 -98 l45 24
35 -38 c61 -67 98 -115 158 -208 85 -131 81 -125 158 -232 136 -188 205 -232
369 -240 116 -6 189 9 293 60 81 39 204 156 250 237 109 195 106 536 -10 945
-72 256 -266 682 -374 820 -81 105 -94 117 -181 178 -141 99 -261 136 -443
137 -143 0 -213 -27 -366 -141 -32 -23 -58 -33 -110 -39 -38 -5 -322 -9 -632
-10 -629 0 -593 -4 -685 73 -29 24 -86 58 -127 77 -71 32 -81 34 -205 36 -95
2 -149 -2 -200 -14z m255 -22 c83 -14 190 -65 258 -123 50 -44 101 -67 148
-67 18 0 22 -8 28 -52 3 -29 6 -91 6 -138 0 -189 34 -281 117 -321 46 -22 61
-23 398 -31 373 -9 457 -4 530 32 72 35 86 68 96 228 5 76 10 171 11 212 l3
74 32 7 c17 3 61 29 96 58 106 84 228 131 339 131 21 0 74 -7 116 -16 223 -46
395 -175 532 -399 85 -138 217 -436 283 -640 92 -281 130 -618 90 -803 -9 -42
-16 -85 -17 -94 0 -9 -3 -15 -7 -12 -9 5 -19 -22 -15 -38 1 -7 1 -10 -1 -6 -3
5 -23 -19 -45 -52 -87 -131 -237 -219 -404 -236 -104 -11 -233 31 -290 94 -28
31 -121 160 -254 352 -51 74 -117 165 -145 201 l-53 66 20 58 c41 122 -12 240
-132 294 -52 24 -92 26 -158 9 -61 -15 -142 -94 -160 -155 l-13 -43 -409 0
-409 0 -10 38 c-33 120 -165 196 -287 163 -129 -35 -203 -162 -170 -291 l14
-54 -69 -89 c-38 -49 -66 -94 -62 -100 4 -6 1 -7 -7 -2 -10 6 -12 4 -7 -8 3
-9 -1 -21 -11 -29 -16 -12 -16 -11 -2 6 9 12 10 17 3 12 -7 -4 -18 -16 -24
-28 -8 -16 -8 -19 1 -13 7 4 4 -4 -5 -19 -9 -14 -20 -24 -24 -22 -4 3 -31 -32
-61 -77 -95 -146 -182 -258 -228 -293 -66 -50 -167 -78 -251 -70 -104 10 -134
15 -140 23 -3 5 -41 26 -85 48 -99 50 -181 135 -230 237 -43 92 -56 161 -56
309 0 322 105 709 295 1089 126 252 209 363 335 450 165 112 327 155 490 130z
m1538 -372 c-5 -205 -13 -239 -69 -279 l-34 -24 -395 -3 c-347 -2 -400 -1
-438 14 -83 31 -108 104 -115 342 l-5 132 530 0 530 0 -4 -182z m-1102 -903
c72 -36 99 -81 100 -169 l1 -70 -46 -47 c-87 -88 -204 -90 -279 -5 -70 80 -64
194 15 267 57 53 133 62 209 24z m1289 6 c133 -60 151 -236 34 -321 -131 -94
-310 6 -297 166 11 132 143 210 263 155z"/>
<path d="M1905 3932 l-40 -7 -3 -114 c-3 -124 -2 -128 65 -202 49 -54 70 -51
132 17 l51 56 0 111 c0 62 -4 118 -8 124 -10 15 -138 25 -197 15z m163 -117
c4 -87 -9 -132 -48 -170 l-30 -29 -43 42 -42 42 -3 96 -4 95 84 -3 83 -3 3
-70z"/>
<path d="M4272 3933 c-12 -2 -37 -19 -56 -37 -92 -86 -33 -236 92 -236 83 0
142 56 142 135 0 92 -85 158 -178 138z m101 -63 c68 -53 27 -169 -60 -170 -37
0 -88 39 -97 74 -8 32 9 76 37 98 30 24 88 23 120 -2z"/>
<path d="M1467 3866 c-81 -128 -247 -494 -247 -543 0 -31 18 0 58 102 59 148
112 259 175 367 31 53 57 101 57 107 0 22 -16 10 -43 -33z"/>
<path d="M3958 3668 c-89 -52 -90 -184 -1 -239 27 -17 45 -20 84 -17 141 14
176 197 49 260 -46 24 -87 22 -132 -4z m132 -43 c10 -9 24 -30 31 -46 17 -43
-8 -95 -56 -115 -45 -18 -78 -10 -110 28 -36 43 -33 82 10 125 31 31 40 35 72
30 19 -4 44 -13 53 -22z"/>
<path d="M4534 3676 c-60 -26 -95 -107 -75 -169 37 -111 192 -132 251 -34 25
40 26 109 3 149 -21 35 -80 68 -120 68 -15 -1 -42 -7 -59 -14z m129 -67 c45
-49 32 -114 -30 -148 -59 -31 -133 15 -133 84 0 48 15 74 53 91 42 18 76 10
110 -27z"/>
<path d="M1580 3631 c-5 -11 -10 -59 -10 -106 0 -127 -2 -125 136 -125 l115 0
60 57 c32 31 59 64 59 74 0 9 -26 40 -57 68 l-57 51 -118 0 c-106 0 -118 -2
-128 -19z m238 -35 c15 -8 38 -26 51 -40 l25 -26 -33 -34 c-46 -48 -76 -57
-162 -54 l-74 3 -3 83 -3 82 86 0 c54 0 96 -5 113 -14z"/>
<path d="M2087 3599 c-74 -66 -74 -82 1 -148 l57 -51 120 2 120 3 3 114 c2 85
-1 117 -10 123 -7 4 -63 8 -124 8 l-110 0 -57 -51z m258 -74 l0 -80 -92 0 -93
0 -42 42 -42 42 24 27 c40 42 77 54 165 51 l80 -2 0 -80z"/>
<path d="M1911 3419 l-51 -61 0 -114 c0 -114 0 -115 26 -124 14 -6 63 -10 109
-10 114 0 115 2 115 144 l0 112 -51 57 c-67 75 -82 75 -148 -4z m111 -16 c41
-45 48 -67 48 -157 l0 -86 -85 0 -85 0 0 81 c0 44 5 90 11 102 13 24 69 87 79
87 3 0 18 -12 32 -27z"/>
<path d="M4253 3411 c-136 -62 -94 -262 56 -264 56 -1 93 19 121 66 71 115
-54 254 -177 198z m120 -56 c73 -74 10 -184 -91 -159 -46 11 -79 64 -68 108
18 73 107 102 159 51z"/>
<path d="M1190 3235 c-16 -50 -5 -68 14 -23 18 42 20 58 7 58 -5 0 -15 -16
-21 -35z"/>
<path d="M3085 3241 c-61 -27 -89 -103 -61 -163 61 -128 267 -35 212 96 -8 19
-25 42 -39 51 -31 20 -85 28 -112 16z m91 -64 c25 -26 25 -54 1 -82 -41 -49
-117 -26 -117 36 0 55 78 86 116 46z"/>
<path d="M5060 3166 c0 -2 5 -17 10 -32 38 -98 74 -289 86 -452 5 -65 10 -90
17 -83 13 13 -5 231 -28 338 -26 119 -59 226 -72 231 -7 2 -13 1 -13 -2z"/>
<path d="M5155 2519 c-6 -28 -1 -48 10 -37 3 2 8 19 11 36 8 42 -12 43 -21 1z"/>
</g>
</svg>
